<svg width="32" height="32" viewBox="0 0 32 32" fill="none" xmlns="http://www.w3.org/2000/svg">
<path d="M22.25 30H9.75C5.46875 30 2 26.5312 2 22.25V9.75C2 5.46875 5.46875 2 9.75 2H22.25C26.5312 2 30 5.46875 30 9.75V22.25C30 26.5312 26.5312 30 22.25 30Z" fill="#4674C5"/>
<path d="M21.4815 9.6738C22.2814 9.6738 22.9341 10.3306 22.9341 11.1353V23.3721C22.9341 24.1834 22.2829 24.8415 21.4815 24.8415H10.5053C9.70378 24.8415 9.05231 24.1834 9.05231 23.3721V11.1432C9.05231 10.3319 9.70378 9.67349 10.5053 9.67349H12.4306C12.5146 8.98191 13.0521 8.44001 13.7358 8.36296C13.8728 7.67328 14.4738 7.15759 15.1837 7.15759H16.7942C17.5044 7.15759 18.1054 7.67328 18.2424 8.36296C18.9261 8.44065 19.4696 8.98791 19.5488 9.67349H21.4811L21.4815 9.6738ZM14.326 9.59359H13.9054C13.8414 9.59363 13.7799 9.61846 13.7339 9.66286C13.6878 9.70726 13.6608 9.76777 13.6584 9.8317V10.9123C13.6584 11.057 13.7664 11.1672 13.9054 11.1672H18.0817C18.2206 11.1672 18.3286 11.0566 18.3286 10.9123V9.8377C18.3275 9.7728 18.3011 9.7109 18.2549 9.66528C18.2088 9.61965 18.1466 9.59391 18.0817 9.59359H17.661C17.3225 9.59359 17.05 9.31601 17.05 8.97401V8.65191C17.05 8.50759 16.942 8.3977 16.8034 8.3977H15.1843C15.0454 8.3977 14.9377 8.50759 14.9377 8.65222V8.97401C14.9377 9.31601 14.6651 9.59359 14.3263 9.59359H14.326ZM10.5056 10.9054C10.4758 10.9058 10.4465 10.9121 10.4192 10.9239C10.3919 10.9356 10.3672 10.9527 10.3465 10.9741C10.3258 10.9954 10.3095 11.0207 10.2986 11.0483C10.2877 11.076 10.2824 11.1055 10.2829 11.1353V23.3721C10.2829 23.5 10.383 23.602 10.5056 23.602H21.4815C21.5112 23.6016 21.5405 23.5952 21.5678 23.5834C21.595 23.5716 21.6197 23.5546 21.6403 23.5332C21.661 23.5119 21.6772 23.4866 21.6881 23.459C21.699 23.4313 21.7043 23.4018 21.7038 23.3721L21.712 11.1435C21.7125 11.1138 21.7072 11.0842 21.6963 11.0565C21.6854 11.0289 21.6691 11.0036 21.6484 10.9823C21.6278 10.9609 21.6031 10.9439 21.5758 10.9321C21.5485 10.9203 21.5191 10.914 21.4894 10.9136H19.5671C19.5621 11.7315 18.9018 12.3984 18.0899 12.3984H13.9054C13.0906 12.3984 12.4287 11.7271 12.4281 10.9054H10.5053H10.5056Z" fill="white"/>
<path d="M19.9136 21.3861C19.8367 21.3782 19.7627 21.3524 19.6976 21.3109C19.6324 21.2694 19.5778 21.2133 19.5381 21.147L18.4906 19.4152C18.1609 19.5299 17.8148 19.5637 17.4172 19.5217C16.0174 19.3745 14.9936 18.0861 15.1429 16.6641C15.292 15.2462 16.5558 14.2126 17.9598 14.3601C19.3647 14.5079 20.3876 15.7827 20.2388 17.1997C20.1694 17.8597 19.8924 18.4186 19.4304 18.8339L20.3955 20.6291C20.5331 20.8644 20.4586 21.1701 20.2287 21.3125C20.1346 21.3722 20.0244 21.3978 19.9136 21.3861ZM16.1389 16.7781C16.0474 17.6484 16.6736 18.4297 17.5344 18.5203C18.3949 18.6109 19.1702 17.9768 19.2618 17.1062C19.353 16.2359 18.7268 15.4543 17.866 15.3637C17.0055 15.2733 16.2302 15.9074 16.1386 16.7781H16.1389ZM14.2669 16.1272H12.3242C12.0596 16.1272 11.8477 15.8847 11.8477 15.5904C11.8477 15.2961 12.0592 15.0536 12.3245 15.0536H14.2672C14.5322 15.0536 14.7438 15.2961 14.7438 15.5904C14.7438 15.8847 14.5322 16.1272 14.2672 16.1272H14.2669ZM14.0121 18.6337H12.3814C12.0886 18.6337 11.8477 18.3949 11.8477 18.0968C11.8477 17.7984 12.0886 17.56 12.3814 17.56H14.0121C14.3051 17.56 14.5461 17.7984 14.5461 18.0968C14.5461 18.3959 14.3061 18.6337 14.0124 18.6337H14.0121ZM16.1437 20.9408H12.3409C12.0681 20.9408 11.8474 20.6992 11.8474 20.404C11.8474 20.1087 12.0684 19.8671 12.3409 19.8671H16.1437C16.4165 19.8671 16.6372 20.1087 16.6372 20.404C16.6372 20.7002 16.4171 20.9408 16.1437 20.9408Z" fill="white"/>
</svg>
