<svg width="32" height="32" viewBox="0 0 32 32" fill="none" xmlns="http://www.w3.org/2000/svg">
<path d="M22.25 30H9.75C5.46875 30 2 26.5312 2 22.25V9.75C2 5.46875 5.46875 2 9.75 2H22.25C26.5312 2 30 5.46875 30 9.75V22.25C30 26.5312 26.5312 30 22.25 30Z" fill="#DE406C"/>
<g clip-path="url(#clip0_171_2728)">
<path d="M7.71253 13.68V24.76C7.71253 25.08 7.97253 25.34 8.29253 25.34C8.61253 25.34 8.87253 25.08 8.87253 24.76V12.88L16.0325 7.90001L23.2525 12.96V24.76C23.2525 25.08 23.5125 25.34 23.8325 25.34C24.1525 25.34 24.4125 25.08 24.4125 24.76V13.82L25.1525 14.3C25.3925 14.46 25.6925 14.38 25.8925 14.1C26.0725 13.84 26.0525 13.5 25.8525 13.36C25.6925 13.24 18.2325 8.00001 16.5725 6.84001H16.5525C16.1325 6.48001 15.7325 6.70001 15.5325 6.84001L6.19253 13.38C6.07253 13.46 6.03253 13.58 6.01253 13.66C5.97253 13.82 6.03253 14 6.13253 14.14C6.23253 14.28 6.39253 14.38 6.55253 14.4C6.67253 14.42 6.79253 14.4 6.85253 14.32L7.71253 13.68Z" fill="white"/>
<path d="M16.3925 17.18C16.2525 17.32 16.0325 17.32 15.8925 17.18C15.7525 17.04 15.7525 16.82 15.8925 16.68L18.2525 14.32C18.3925 14.18 18.6125 14.18 18.7525 14.32L21.1125 16.68C21.2525 16.82 21.2525 17.04 21.1125 17.18C20.9725 17.32 20.7525 17.32 20.6125 17.18L18.8725 15.44V21.22C18.8725 21.42 18.7125 21.58 18.5125 21.58C18.3125 21.58 18.1525 21.42 18.1525 21.22V15.44L16.3925 17.18ZM11.2925 24.06C11.2925 23.82 11.4925 23.62 11.7325 23.62H20.0725C20.3125 23.62 20.5125 23.82 20.5125 24.06C20.5125 24.3 20.3125 24.5 20.0725 24.5H11.7325C11.4725 24.48 11.2925 24.28 11.2925 24.06ZM15.2925 18.62C15.4325 18.48 15.6525 18.48 15.7925 18.62C15.9325 18.76 15.9325 18.98 15.7925 19.12L13.4325 21.48C13.2925 21.62 13.0725 21.62 12.9325 21.48L10.5725 19.12C10.4325 18.98 10.4325 18.76 10.5725 18.62C10.7125 18.48 10.9325 18.48 11.0725 18.62L12.8125 20.36V14.58C12.8125 14.38 12.9725 14.22 13.1725 14.22C13.3725 14.22 13.5325 14.38 13.5325 14.58V20.36L15.2925 18.62Z" fill="white"/>
</g>
<defs>
<clipPath id="clip0_171_2728">
<rect width="20" height="20" fill="white" transform="translate(6 6)"/>
</clipPath>
</defs>
</svg>
