<svg width="32" height="32" viewBox="0 0 32 32" fill="none" xmlns="http://www.w3.org/2000/svg">
<path d="M22.25 30H9.75C5.46875 30 2 26.5312 2 22.25V9.75C2 5.46875 5.46875 2 9.75 2H22.25C26.5312 2 30 5.46875 30 9.75V22.25C30 26.5312 26.5312 30 22.25 30Z" fill="#55BFD4"/>
<g clip-path="url(#clip0_171_2735)">
<path d="M15.5739 25.6H7.40181C7.12344 25.6 6.90472 25.38 6.90472 25.1V10.62C6.90472 10.34 7.12344 10.12 7.40181 10.12H23.7858C24.0642 10.12 24.2829 10.34 24.2829 10.62V15.62C24.2829 15.9 24.0642 16.12 23.7858 16.12C23.5074 16.12 23.2887 15.9 23.2887 15.62V11.12H7.8989V24.6H15.5739C15.8523 24.6 16.071 24.82 16.071 25.1C16.071 25.38 15.8523 25.6 15.5739 25.6Z" fill="white"/>
<path d="M23.7858 11.12H7.4018C7.21291 11.12 7.0439 11.02 6.96437 10.85C6.87489 10.69 6.89477 10.49 6.99419 10.33L9.47963 6.72C9.5691 6.58 9.72817 6.5 9.88724 6.5H21.1115C21.2705 6.5 21.4197 6.57 21.5091 6.7L24.1835 10.32C24.2928 10.47 24.3127 10.67 24.2332 10.84C24.1437 11.01 23.9747 11.12 23.7858 11.12ZM8.34627 10.12H22.8016L20.8629 7.5H10.1457L8.34627 10.12ZM20.3857 23.64C18.4869 23.64 16.9459 22.09 16.9459 20.18C16.9459 18.27 18.4869 16.72 20.3857 16.72C22.2846 16.72 23.8256 18.27 23.8256 20.18C23.8256 22.09 22.2846 23.64 20.3857 23.64ZM20.3857 17.72C19.0336 17.72 17.9401 18.82 17.9401 20.18C17.9401 21.54 19.0336 22.64 20.3857 22.64C21.7378 22.64 22.8314 21.54 22.8314 20.18C22.8314 18.82 21.7378 17.72 20.3857 17.72Z" fill="white"/>
<path d="M24.8495 25.45C24.7104 25.45 24.5712 25.39 24.4817 25.28L22.1056 22.59C21.9267 22.38 21.9465 22.07 22.1454 21.88C22.3542 21.7 22.6624 21.72 22.8512 21.92L25.2273 24.61C25.4063 24.82 25.3864 25.13 25.1876 25.32C25.0881 25.41 24.9688 25.45 24.8495 25.45ZM18.7254 15.22H12.4721C12.1937 15.22 11.975 15 11.975 14.72C11.975 14.44 12.1937 14.22 12.4721 14.22H18.7254C19.0038 14.22 19.2225 14.44 19.2225 14.72C19.2225 15 19.0038 15.22 18.7254 15.22Z" fill="white"/>
</g>
<defs>
<clipPath id="clip0_171_2735">
<rect width="20" height="20" fill="white" transform="translate(6 6)"/>
</clipPath>
</defs>
</svg>
