<svg width="32" height="32" viewBox="0 0 32 32" fill="none" xmlns="http://www.w3.org/2000/svg">
<path d="M22.25 30H9.75C5.46875 30 2 26.5312 2 22.25V9.75C2 5.46875 5.46875 2 9.75 2H22.25C26.5312 2 30 5.46875 30 9.75V22.25C30 26.5312 26.5312 30 22.25 30Z" fill="#4674C5"/>
<path d="M20.288 10.188C18.944 8.844 17.152 8.104 15.252 8.104C13.352 8.104 11.56 8.844 10.212 10.188C7.436 12.964 7.436 17.484 10.212 20.26C11.556 21.604 13.348 22.344 15.248 22.344C17.148 22.344 18.94 21.604 20.284 20.26C23.064 17.484 23.064 12.964 20.288 10.188ZM19.44 19.412C18.32 20.532 16.832 21.148 15.248 21.148C13.664 21.148 12.176 20.532 11.056 19.412C8.748 17.104 8.748 13.344 11.06 11.036C12.18 9.916 13.668 9.3 15.252 9.3C16.836 9.3 18.324 9.916 19.444 11.036C21.752 13.348 21.752 17.104 19.44 19.412ZM23.98 23.14L21.756 20.916C21.584 20.744 21.2 20.652 20.912 20.916C20.64 21.164 20.74 21.612 20.912 21.788L23.136 24.012C23.224 24.1 23.676 24.324 24 23.988C24.268 23.712 24.156 23.312 23.98 23.14Z" fill="white"/>
</svg>
