<svg width="32" height="32" viewBox="0 0 32 32" fill="none" xmlns="http://www.w3.org/2000/svg">
<path d="M22.25 30H9.75C5.46875 30 2 26.5312 2 22.25V9.75C2 5.46875 5.46875 2 9.75 2H22.25C26.5312 2 30 5.46875 30 9.75V22.25C30 26.5312 26.5312 30 22.25 30Z" fill="#887ADE"/>
<g clip-path="url(#clip0_171_2756)">
<path d="M6 20.4444H26.0015V22.6667H6V20.4444ZM6 23.7778H9.07715V26H6V23.7778ZM22.9243 23.7778H26.0015V26H22.9243V23.7778ZM11.962 7.38889V10.1667H10.0388V7.38889H11.962ZM12.9236 6H9.07715V11.5556H12.9236V6Z" fill="white"/>
<path d="M14.4622 7.11111V17.1111H7.53858V7.11111H14.4622ZM15.2315 6H6.76929V18.2222H15.2315V6ZM21.9627 7.38889V10.1667H20.0395V7.38889H21.9627ZM22.9243 6H19.0779V11.5556H22.9243V6Z" fill="white"/>
<path d="M24.4629 7.11111V17.1111H17.5393V7.11111H24.4629ZM25.2322 6H16.77V18.2222H25.2322V6Z" fill="white"/>
</g>
<defs>
<clipPath id="clip0_171_2756">
<rect width="20" height="20" fill="white" transform="translate(6 6)"/>
</clipPath>
</defs>
</svg>
