<svg width="34" height="32" viewBox="0 0 34 32" fill="none" xmlns="http://www.w3.org/2000/svg">
<path d="M23.372 30H10.4955C6.08532 30 2.51208 26.5312 2.51208 22.25V9.75C2.51208 5.46875 6.08532 2 10.4955 2H23.372C27.7822 2 31.3555 5.46875 31.3555 9.75V22.25C31.3555 26.5312 27.7822 30 23.372 30Z" fill="#F77234"/>
<path d="M21.55 6.34998V11.175H24.9108L27.2285 14.85V22.2H24.0126C24.1478 23.3844 23.5748 24.5375 22.5383 25.1719C21.4985 25.8062 20.1786 25.8062 19.1389 25.1719C18.0991 24.5375 17.5261 23.3844 17.6645 22.2H15.1407C15.2759 23.3844 14.7029 24.5375 13.6663 25.1719C12.6266 25.8062 11.3067 25.8062 10.2669 25.1719C9.22717 24.5375 8.65417 23.3844 8.79259 22.2H6.64221V6.34998H21.55ZM19.0648 22.5469C19.0648 23.2031 19.4511 23.8031 20.0595 24.0906C20.6679 24.3812 21.389 24.3094 21.9266 23.9062C22.461 23.5062 22.7153 22.8437 22.5801 22.2H19.1002C19.0745 22.3156 19.0648 22.4312 19.0648 22.5469ZM13.705 22.2031H10.2251C10.0835 22.8875 10.3796 23.5875 10.9752 23.9781C11.5739 24.3656 12.3529 24.3656 12.9517 23.9781C13.5505 23.5875 13.8466 22.8875 13.705 22.2031ZM20.1271 7.7281H8.05863V20.8218H20.1271V7.7281ZM24.1156 12.5531H21.55V20.825H25.8089V15.2406L24.1156 12.5531ZM17.7128 11.5969L18.7172 12.5719L13.6953 17.4437L10.1833 14.0312L11.1876 13.0562L13.6953 15.4906L17.7128 11.5969Z" fill="white"/>
</svg>
