<svg width="33" height="32" viewBox="0 0 33 32" fill="none" xmlns="http://www.w3.org/2000/svg">
<path d="M22.9202 30H10.0437C5.63347 30 2.06024 26.5312 2.06024 22.25V9.75C2.06024 5.46875 5.63347 2 10.0437 2H22.9202C27.3304 2 30.9036 5.46875 30.9036 9.75V22.25C30.9036 26.5312 27.3304 30 22.9202 30Z" fill="#DE406C"/>
<path d="M23.1634 17.442L23.154 17.4321C23.0738 17.3496 22.8859 17.1567 22.5521 17.1567C22.3341 17.1567 22.1134 17.2524 21.9466 17.419C21.7798 17.5856 21.6849 17.8065 21.6849 18.0244V18.6422C21.0851 18.7231 20.5579 18.8942 20.1136 19.153C19.6414 19.4259 19.2466 19.8146 18.9663 20.2824C18.4722 21.1028 18.4068 22.0033 18.3753 22.4362C18.3706 22.501 18.3665 22.5571 18.3624 22.5936C18.3604 22.6114 18.3593 22.6293 18.3593 22.6473C18.3593 23.1198 18.7818 23.4481 19.1601 23.4481C19.4542 23.4481 19.6806 23.3026 19.8333 23.0153C20.3423 22.209 20.9249 21.7948 21.6823 21.7145V22.4762C21.6823 22.9332 22.0273 23.277 22.4849 23.277C22.8072 23.277 22.9904 23.0985 23.0784 23.0127L23.0798 23.0114C23.0871 23.0042 23.0942 22.9968 23.1011 22.9891L24.9075 20.9864C25.0585 20.8371 25.2982 20.5918 25.3009 20.2071C25.3037 20.0582 25.2757 19.9103 25.2185 19.7728C25.1614 19.6353 25.0764 19.5111 24.9689 19.408L23.1634 17.442ZM24.232 20.3213L24.2124 20.3408L22.6304 22.0959V21.2315C22.6304 21.11 22.5838 20.9933 22.5002 20.9052C22.4166 20.8171 22.3024 20.7644 22.1812 20.758C21.4857 20.7209 20.8618 20.8631 20.3257 21.1803C19.9759 21.3875 19.6599 21.6686 19.3687 22.0311C19.5394 20.8576 20.1066 19.6678 22.1839 19.5463C22.3047 19.5392 22.4182 19.4863 22.5012 19.3983C22.5842 19.3103 22.6304 19.1939 22.6304 19.0729V18.2656L24.2814 20.0625C24.2902 20.0722 24.2995 20.0815 24.3091 20.0905C24.3226 20.1029 24.3333 20.118 24.3405 20.1348C24.3478 20.1516 24.3514 20.1698 24.3511 20.1881C24.3337 20.2209 24.2657 20.2879 24.232 20.3213ZM17.0585 22.7114H16.0292C15.629 22.7114 15.5431 22.7971 15.5431 23.1973V24.2551C15.5431 24.6555 15.6288 24.7412 16.0292 24.7412H17.0585C17.4589 24.7412 17.5447 24.6555 17.5447 24.2551V23.1975C17.5161 22.7969 17.4304 22.7114 17.0585 22.7114ZM13.6279 22.7114H12.5986C12.1984 22.7114 12.1124 22.7971 12.1124 23.1973V24.2551C12.1124 24.6555 12.1982 24.7412 12.5986 24.7412H13.6279C14.0281 24.7412 14.1138 24.6555 14.1138 24.2551V23.1975C14.0851 22.7969 13.9993 22.7114 13.6279 22.7114ZM13.6279 19.0449H12.5986C12.1984 19.0449 12.1124 19.1307 12.1124 19.5309V20.5602C12.1124 20.9604 12.1982 21.0461 12.5986 21.0461H13.6279C14.0281 21.0461 14.1138 20.9604 14.1138 20.5602V19.5026C14.0851 19.1307 13.9993 19.0449 13.6279 19.0449ZM16.0292 15.5856C15.629 15.5856 15.5433 15.6713 15.5433 16.0715V17.1293C15.5433 17.5297 15.629 17.6155 16.0292 17.6155H17.0585C17.4587 17.6155 17.5445 17.5297 17.5445 17.1293V16.0715C17.5159 15.6713 17.4302 15.5856 17.0585 15.5856H16.0292ZM17.0585 19.0449H16.0292C15.629 19.0449 15.5431 19.1307 15.5431 19.5309V20.5602C15.5431 20.9604 15.6288 21.0461 16.0292 21.0461H17.0585C17.4589 21.0461 17.5447 20.9604 17.5447 20.5602V19.5026C17.5161 19.1307 17.4304 19.0449 17.0585 19.0449ZM13.6279 15.5856H12.5986C12.1984 15.5856 12.1124 15.6713 12.1124 16.0715V17.1293C12.1124 17.5295 12.1982 17.6153 12.5986 17.6153H13.6279C14.0281 17.6153 14.1138 17.5295 14.1138 17.1293V16.0715C14.0851 15.6428 13.9993 15.5856 13.6279 15.5856Z" fill="white"/>
<path d="M24.4054 14.358C24.4641 14.4046 24.5315 14.4389 24.6037 14.4589C24.6759 14.479 24.7514 14.4843 24.8257 14.4747C24.9 14.4651 24.9716 14.4406 25.0363 14.4029C25.101 14.3651 25.1574 14.3147 25.2024 14.2548C25.2473 14.1948 25.2797 14.1264 25.2977 14.0537C25.3157 13.981 25.319 13.9054 25.3073 13.8314C25.2957 13.7574 25.2693 13.6865 25.2297 13.6229C25.1902 13.5592 25.1383 13.5042 25.0771 13.461L16.8935 7.33499C16.7966 7.26254 16.6788 7.22339 16.5578 7.22339C16.4368 7.22339 16.3191 7.26254 16.2222 7.33499L8.02336 13.461C7.96436 13.505 7.91463 13.5603 7.87698 13.6235C7.83934 13.6868 7.81453 13.7569 7.80396 13.8297C7.78262 13.9769 7.82062 14.1265 7.90959 14.2456C7.99855 14.3648 8.1312 14.4437 8.27836 14.465C8.42551 14.4864 8.57511 14.4484 8.69425 14.3594L9.48605 13.7676V24.1811C9.48605 24.3297 9.54509 24.4722 9.65017 24.5773C9.75526 24.6824 9.89779 24.7414 10.0464 24.7414C10.195 24.7414 10.3375 24.6824 10.4426 24.5773C10.5477 24.4722 10.6068 24.3297 10.6068 24.1811V12.9291L16.5569 8.48323L24.4054 14.358Z" fill="white"/>
</svg>
