<svg width="33" height="32" viewBox="0 0 33 32" fill="none" xmlns="http://www.w3.org/2000/svg">
<path d="M22.9202 30H10.0437C5.63347 30 2.06024 26.5312 2.06024 22.25V9.75C2.06024 5.46875 5.63347 2 10.0437 2H22.9202C27.3304 2 30.9036 5.46875 30.9036 9.75V22.25C30.9036 26.5312 27.3304 30 22.9202 30Z" fill="#2BC883"/>
<path d="M18.6902 19.408C18.5826 19.5111 18.4976 19.6353 18.4405 19.7728C18.3833 19.9103 18.3553 20.0582 18.3581 20.2071C18.3607 20.5918 18.6007 20.8371 18.7515 20.9864L20.5583 22.991C20.5652 22.9987 20.5723 23.0061 20.5796 23.0133L20.581 23.0147C20.6691 23.1004 20.8523 23.2789 21.1745 23.2789C21.632 23.2789 21.9771 22.9342 21.9771 22.4781V21.7164C22.7345 21.7967 23.3173 22.211 23.8261 23.0172C23.9788 23.3045 24.2052 23.45 24.4993 23.45C24.8784 23.45 25.3001 23.1207 25.3001 22.6492C25.3001 22.6313 25.2991 22.6134 25.297 22.5955C25.2929 22.559 25.2888 22.503 25.2841 22.4381C25.2527 22.0051 25.1865 21.1043 24.6931 20.2844C24.4128 19.8166 24.018 19.4278 23.5458 19.1549C23.1015 18.8961 22.5743 18.7252 21.9745 18.6442V18.0244C21.9745 17.8065 21.8788 17.5858 21.7122 17.419C21.5456 17.2522 21.3249 17.1567 21.1068 17.1567C20.773 17.1567 20.5849 17.3496 20.5048 17.4321L20.4954 17.442L18.6902 19.408ZM19.3072 20.1877C19.3069 20.1694 19.3105 20.1512 19.3177 20.1344C19.325 20.1176 19.3357 20.1025 19.3491 20.0901C19.3588 20.0812 19.368 20.0719 19.3769 20.0621L21.0279 18.2653V19.0721C21.0278 19.1931 21.0741 19.3095 21.1571 19.3975C21.2401 19.4855 21.3536 19.5385 21.4743 19.5455C23.5517 19.6672 24.1189 20.8569 24.2896 22.0303C23.999 21.6674 23.6829 21.3867 23.3325 21.1795C22.7982 20.8633 22.1732 20.7209 21.4786 20.758C21.3574 20.7644 21.2432 20.8171 21.1596 20.9052C21.0761 20.9933 21.0295 21.11 21.0294 21.2315V22.0963L19.4474 20.3412C19.4413 20.3343 19.4348 20.3278 19.4279 20.3217C19.3948 20.2879 19.3269 20.2209 19.3072 20.1879V20.1877ZM17.0585 22.7114H16.0292C15.629 22.7114 15.5431 22.7971 15.5431 23.1973V24.2551C15.5431 24.6555 15.6288 24.7412 16.0292 24.7412H17.0585C17.4589 24.7412 17.5447 24.6555 17.5447 24.2551V23.1975C17.5161 22.7969 17.4304 22.7114 17.0585 22.7114ZM13.6279 22.7114H12.5986C12.1984 22.7114 12.1124 22.7971 12.1124 23.1973V24.2551C12.1124 24.6555 12.1982 24.7412 12.5986 24.7412H13.6279C14.0281 24.7412 14.1138 24.6555 14.1138 24.2551V23.1975C14.0851 22.7969 13.9993 22.7114 13.6279 22.7114ZM13.6279 19.0449H12.5986C12.1984 19.0449 12.1124 19.1307 12.1124 19.5309V20.5602C12.1124 20.9604 12.1982 21.0461 12.5986 21.0461H13.6279C14.0281 21.0461 14.1138 20.9604 14.1138 20.5602V19.5026C14.0851 19.1307 13.9993 19.0449 13.6279 19.0449ZM16.0292 15.5856C15.629 15.5856 15.5433 15.6713 15.5433 16.0715V17.1293C15.5433 17.5297 15.629 17.6155 16.0292 17.6155H17.0585C17.4587 17.6155 17.5445 17.5297 17.5445 17.1293V16.0715C17.5159 15.6713 17.4302 15.5856 17.0585 15.5856H16.0292ZM17.0585 19.0449H16.0292C15.629 19.0449 15.5431 19.1307 15.5431 19.5309V20.5602C15.5431 20.9604 15.6288 21.0461 16.0292 21.0461H17.0585C17.4589 21.0461 17.5447 20.9604 17.5447 20.5602V19.5026C17.5161 19.1307 17.4304 19.0449 17.0585 19.0449ZM13.6279 15.5856H12.5986C12.1984 15.5856 12.1124 15.6713 12.1124 16.0715V17.1293C12.1124 17.5295 12.1982 17.6153 12.5986 17.6153H13.6279C14.0281 17.6153 14.1138 17.5295 14.1138 17.1293V16.0715C14.0851 15.6428 13.9993 15.5856 13.6279 15.5856Z" fill="white"/>
<path d="M24.4054 14.358C24.4641 14.4046 24.5315 14.4389 24.6037 14.4589C24.6759 14.479 24.7514 14.4843 24.8257 14.4747C24.9 14.4651 24.9716 14.4406 25.0363 14.4029C25.101 14.3651 25.1574 14.3147 25.2024 14.2548C25.2473 14.1948 25.2797 14.1264 25.2977 14.0537C25.3157 13.981 25.319 13.9054 25.3073 13.8314C25.2957 13.7574 25.2693 13.6865 25.2297 13.6229C25.1902 13.5592 25.1383 13.5042 25.0771 13.461L16.8935 7.33499C16.7966 7.26254 16.6788 7.22339 16.5578 7.22339C16.4368 7.22339 16.3191 7.26254 16.2222 7.33499L8.02336 13.461C7.96436 13.505 7.91463 13.5603 7.87698 13.6235C7.83934 13.6868 7.81453 13.7569 7.80396 13.8297C7.78262 13.9769 7.82062 14.1265 7.90959 14.2456C7.99855 14.3648 8.1312 14.4437 8.27836 14.465C8.42551 14.4864 8.57511 14.4484 8.69425 14.3594L9.48605 13.7676V24.1811C9.48605 24.3297 9.54509 24.4722 9.65017 24.5773C9.75526 24.6824 9.89779 24.7414 10.0464 24.7414C10.195 24.7414 10.3375 24.6824 10.4426 24.5773C10.5477 24.4722 10.6068 24.3297 10.6068 24.1811V12.9291L16.5569 8.48323L24.4054 14.358Z" fill="white"/>
</svg>
