<svg width="32" height="32" viewBox="0 0 32 32" fill="none" xmlns="http://www.w3.org/2000/svg">
<path d="M22.25 30H9.75C5.46875 30 2 26.5312 2 22.25V9.75C2 5.46875 5.46875 2 9.75 2H22.25C26.5312 2 30 5.46875 30 9.75V22.25C30 26.5312 26.5312 30 22.25 30Z" fill="#55BFD4"/>
<path d="M16 8.12504L22.6269 12.8067V15.5098C22.6269 16.0899 23.8125 16.0918 23.8125 15.5098V13.5977L24.8808 14.3516C25.3398 14.6739 25.9199 13.7305 25.4668 13.4102L16.7031 7.20512C16.0722 6.73637 15.705 6.74223 15.1152 7.17973L6.27927 13.4102C5.82419 13.7325 6.48044 14.6758 6.93942 14.3516L8.01364 13.5879V24.3516C8.01364 24.9082 9.14841 24.9102 9.14841 24.3516V12.8731L15.7734 8.11918C15.8496 8.06645 15.9238 8.06645 16 8.12504ZM12.4179 18.92H10.8574C10.7031 18.92 10.5742 19.0469 10.5761 19.1993V20.7481C10.5761 20.9063 10.7031 21.0332 10.8574 21.0332H12.4179C12.5722 21.0332 12.6992 20.9063 12.6992 20.7481V19.1993C12.6992 19.0469 12.5722 18.92 12.4179 18.92ZM12.4179 22.6563H10.8574C10.7031 22.6563 10.5742 22.7832 10.5761 22.9414V24.4903C10.5761 24.6485 10.7031 24.7754 10.8574 24.7754H12.4179C12.5722 24.7754 12.6992 24.6485 12.6992 24.4903V22.9414C12.6992 22.7813 12.5722 22.6563 12.4179 22.6563ZM12.4179 15.1797H10.8574C10.7031 15.1797 10.5742 15.3086 10.5761 15.459V17.0118C10.5761 17.1661 10.7031 17.2911 10.8574 17.2911H12.4179C12.5722 17.2911 12.6992 17.1641 12.6992 17.0118V15.459C12.6992 15.3067 12.5722 15.1797 12.4179 15.1797ZM16.1758 22.6563H14.6152C14.4609 22.6563 14.332 22.7832 14.334 22.9414V24.4903C14.334 24.6485 14.4609 24.7754 14.6152 24.7754H16.1758C16.33 24.7754 16.457 24.6485 16.457 24.4903V22.9414C16.459 22.7813 16.332 22.6563 16.1758 22.6563ZM14.5625 17.293H16.123C16.2773 17.293 16.4043 17.1661 16.4043 17.0137V15.461C16.4043 15.3067 16.2773 15.1817 16.123 15.1817H14.5625C14.4082 15.1817 14.2773 15.3106 14.2812 15.461V17.0137C14.2812 17.1661 14.4082 17.293 14.5625 17.293ZM16.1758 18.92H14.6152C14.4609 18.92 14.332 19.0469 14.334 19.1993V20.7481C14.334 20.9063 14.4609 21.0332 14.6152 21.0332H16.1758C16.33 21.0332 16.457 20.9063 16.457 20.7481V19.1993C16.459 19.0469 16.332 18.92 16.1758 18.92ZM25.625 18.4024L24.3105 17.0899C23.8281 16.6094 23.039 16.6094 22.5508 17.0899L17.9746 21.6426C17.8281 21.7872 17.7383 21.9883 17.7383 22.209V24.3438C17.7383 24.7637 17.957 24.9297 18.373 24.9297L20.4941 24.918C20.7168 24.9161 20.9179 24.8262 21.0625 24.6817L25.625 20.1426C25.8515 19.92 25.9922 19.6133 25.9922 19.2735C25.9922 18.9317 25.8515 18.6231 25.625 18.4024ZM20.4043 24.2657L18.414 24.2813L18.4179 22.3223C18.4179 22.2832 18.4668 22.2422 18.4668 22.2422L20.4726 24.2286L20.4043 24.2657ZM20.9961 23.8262L18.8789 21.7325L21.8789 18.75L23.9355 20.8594L20.9961 23.8262ZM25.0508 19.6934L24.3535 20.4102L22.33 18.377L22.9863 17.6797C23.2148 17.4512 23.6191 17.4082 23.8476 17.6348L25.0293 18.8145C25.2597 19.043 25.2812 19.4649 25.0508 19.6934Z" fill="white"/>
</svg>
