<svg width="32" height="32" viewBox="0 0 32 32" fill="none" xmlns="http://www.w3.org/2000/svg">
<path d="M22.25 30H9.75C5.46875 30 2 26.5312 2 22.25V9.75C2 5.46875 5.46875 2 9.75 2H22.25C26.5312 2 30 5.46875 30 9.75V22.25C30 26.5312 26.5312 30 22.25 30Z" fill="#67A2E0"/>
<path d="M8.98133 7.46662C9.34344 7.46662 9.69072 7.61047 9.94677 7.86652C10.2028 8.12257 10.3467 8.46984 10.3467 8.83195V21.2176C10.5867 21.3024 10.8047 21.4398 10.9848 21.6197C11.1649 21.7996 11.3025 22.0175 11.3876 22.2574H24.5685C24.6432 22.2574 24.7172 22.2721 24.7862 22.3006C24.8553 22.3292 24.918 22.3711 24.9708 22.4239C25.0236 22.4768 25.0655 22.5395 25.0941 22.6085C25.1227 22.6775 25.1374 22.7515 25.1373 22.8262C25.1373 22.9009 25.1226 22.9749 25.0941 23.0439C25.0655 23.113 25.0236 23.1757 24.9708 23.2285C24.918 23.2813 24.8553 23.3232 24.7862 23.3518C24.7172 23.3804 24.6432 23.3952 24.5685 23.3952H11.3865C11.2905 23.667 11.1272 23.9102 10.9117 24.1018C10.6963 24.2934 10.4358 24.4273 10.1545 24.491C9.72992 24.5872 9.28462 24.5175 8.90972 24.2961C8.53481 24.0748 8.25865 23.7186 8.13773 23.3004C8.01691 22.8821 8.06051 22.4334 8.25962 22.0462C8.45873 21.6591 8.79829 21.3626 9.2088 21.2176V8.83195C9.20886 8.78208 9.19252 8.73357 9.16231 8.6939C9.1321 8.65422 9.08969 8.62557 9.0416 8.61235L8.98133 8.60435H7.50226C7.42683 8.60551 7.35191 8.59165 7.28188 8.56358C7.21185 8.53551 7.1481 8.49379 7.09435 8.44085C7.04059 8.38791 6.9979 8.32481 6.96877 8.25522C6.93963 8.18563 6.92462 8.11093 6.92462 8.03549C6.92462 7.96004 6.93963 7.88535 6.96877 7.81575C6.9979 7.74616 7.04059 7.68306 7.09435 7.63012C7.1481 7.57718 7.21185 7.53546 7.28188 7.5074C7.35191 7.47933 7.42683 7.46546 7.50226 7.46662H8.98133Z" fill="white"/>
<path d="M22.6343 8.60437C22.9964 8.60437 23.3436 8.74822 23.5997 9.00427C23.8557 9.26032 23.9996 9.60759 23.9996 9.9697V19.7544C23.9994 20.0244 23.9193 20.2882 23.7693 20.5127C23.6193 20.7372 23.4061 20.9122 23.1568 21.0157C22.9912 21.0844 22.8136 21.1197 22.6343 21.1197H12.8496C12.6703 21.1197 12.4928 21.0844 12.3271 21.0158C12.1615 20.9472 12.011 20.8466 11.8843 20.7198C11.6282 20.4638 11.4843 20.1165 11.4843 19.7544V9.9697C11.4843 9.60759 11.6281 9.26032 11.8841 9.00427C12.1402 8.74822 12.4875 8.60437 12.8496 8.60437H22.6343ZM22.6343 9.7421H20.5864V14.8621C20.5862 15.0129 20.5263 15.1575 20.4197 15.2642C20.3402 15.3439 20.2388 15.3981 20.1285 15.4201C20.0181 15.4421 19.9037 15.4307 19.7997 15.3876C19.6604 15.3298 19.5497 15.219 19.4919 15.0797C19.4633 15.0107 19.4486 14.9367 19.4487 14.862V9.7421H12.8496C12.7997 9.74205 12.7512 9.75841 12.7115 9.78864C12.6718 9.81888 12.6432 9.86132 12.63 9.90944L12.622 9.9697V19.7544C12.6219 19.8043 12.6383 19.8528 12.6685 19.8925C12.6987 19.9322 12.7412 19.9608 12.7893 19.974L12.8496 19.982H22.6343C22.6841 19.9819 22.7326 19.9655 22.7723 19.9353C22.8119 19.9051 22.8406 19.8627 22.8539 19.8146L22.8619 19.7544V9.9697C22.8619 9.91983 22.8456 9.87132 22.8154 9.83165C22.7852 9.79197 22.7427 9.76332 22.6947 9.7501L22.6343 9.7421Z" fill="white"/>
</svg>
