<svg width="28" height="29" viewBox="0 0 28 29" fill="none" xmlns="http://www.w3.org/2000/svg">
<path d="M23.3883 4.64162C23.2226 4.31755 22.8691 4.11133 22.4799 4.11133H2.78641C2.39375 4.11133 2.03685 4.322 1.87322 4.65122C1.70947 4.97978 1.76807 5.36647 2.02418 5.64086L9.02134 13.1415V21.6C9.02134 21.9513 9.23724 22.2727 9.57886 22.4293L14.75 24.7927C14.8909 24.8575 15.0445 24.8888 15.1968 24.8888C15.3757 24.8888 15.5547 24.8448 15.7143 24.7576C16.0074 24.595 16.1908 24.3063 16.2013 23.991L16.5556 13.1418L23.2569 5.62491C23.5031 5.34857 23.5546 4.96567 23.3883 4.64162ZM14.2399 22.492L11.0301 21.0251V13.7243H14.5263L14.2399 22.492ZM15.0602 11.902C15.0065 11.8938 14.9573 11.8722 14.9014 11.8722H10.4868L4.97486 5.96345H20.3537L15.0602 11.902ZM18.7429 14.8284H26.2184V16.4625H18.7429V14.8284ZM18.7429 18.3857H26.2184V20.0198H18.7429V18.3857ZM18.7429 21.6537H26.2184V23.2877H18.7429V21.6537Z" fill="#007AFF"/>
</svg>
